<?xml version="1.0" encoding="UTF-8"?>
<svg width="24" height="24" viewBox="0 0 24 24" fill="none" xmlns="http://www.w3.org/2000/svg">
  <path d="M12 3C7.02944 3 3 7.02944 3 12C3 16.9706 7.02944 21 12 21C16.9706 21 21 16.9706 21 12C21 7.02944 16.9706 3 12 3Z" stroke="#167D83" stroke-width="2"/>
  <path d="M15 8C13.8954 8 13 8.89543 13 10C13 11.1046 13.8954 12 15 12C16.1046 12 17 11.1046 17 10C17 8.89543 16.1046 8 15 8Z" stroke="#167D83" stroke-width="2"/>
  <path d="M9 12C7.89543 12 7 12.8954 7 14C7 15.1046 7.89543 16 9 16C10.1046 16 11 15.1046 11 14C11 12.8954 10.1046 12 9 12Z" stroke="#167D83" stroke-width="2"/>
  <path d="M13 10L11 14" stroke="#167D83" stroke-width="2"/>
</svg> 