<svg width="837" height="444" viewBox="0 0 837 444" fill="none" xmlns="http://www.w3.org/2000/svg">
<path d="M191.851 14.8232C195.451 14.2169 199.686 14.3591 203.302 14.715C211.171 15.4894 216.576 18.6929 221.506 24.7709C222.012 30.4759 222.097 36.2127 222.671 41.9082C224.253 57.5831 236.549 67.2247 249.23 74.605C253.481 77.0785 257.776 79.0131 261.615 82.1526C274.23 72.4533 288.413 71.3962 296.006 55.7236C297.768 52.0866 299.36 48.3486 300.084 44.3508C301.247 37.9315 300.09 30.745 303.31 24.8499C305.812 20.2678 310.071 17.4929 314.976 16.0599C321.228 14.233 327.93 14.2951 334.3 15.4321C347.424 17.7748 379.315 31.3725 391.199 38.0146C393.723 39.4253 396.918 41.3569 397.746 44.2793C397.338 46.1619 396.502 47.5239 395.037 48.7935C390.097 53.0758 379.059 54.8751 372.63 54.7466C366.398 54.6221 360.003 53.3596 353.81 54.374C350.648 54.8919 347.768 56.2392 344.944 57.6976C333.537 63.5888 276.281 94.6946 269.748 94.2176C266.649 92.7446 263.357 87.9186 261.893 84.8316C258.985 89.3146 255.832 92.9796 251.43 96.0526C251.856 96.5106 252.112 96.4466 252.702 96.5516C252.539 98.2546 256.695 100.801 257.235 103.643C257.116 104.999 256.718 105.848 255.843 106.887C250.579 113.133 239.797 114.771 232.091 113.05C227.222 111.964 221.75 109.205 216.725 109.77C213.16 110.17 210.264 112.979 208.111 115.66C202.422 122.746 200.902 129.193 201.884 138.129C204.71 141.812 207.295 146.215 210.989 149.08C228.869 162.945 271.175 158.349 293.705 164.31C305.523 167.437 317.026 174.249 323.281 185.047C327.901 193.024 330.724 205.763 328.21 214.801C325.655 223.986 316.668 230.405 308.813 234.808C299.944 230.665 292.728 226.013 283.22 222.82C289.006 220.14 294.973 217.807 300.792 215.185C303.765 213.47 306.814 211.252 308.07 207.916C308.965 205.539 308.496 203.324 307.475 201.074C297.969 180.119 270.096 183.5 251.388 182.114C236.942 181.044 221.672 179.484 208.03 174.311C196.944 170.108 185.016 162.01 180.032 150.836C175.893 141.553 176.23 127.278 179.85 117.878C183.505 108.387 192.449 100.742 201.564 96.6846C216.369 90.0956 233.343 87.9496 248.604 93.7936C241.05 88.7276 232.263 86.1096 224.183 82.0066C206.219 72.883 188.501 61.9681 169.737 54.5983C165.742 53.0291 159.196 55.2565 155.491 56.9095L155.711 56.9921C154.045 57.9094 152.37 58.8103 150.686 59.6947C127.526 71.8173 73.383 85.1626 47.28 85.7316C39.341 85.9046 23.119 83.5316 15.433 81.0888C8.423 78.8613 3.371 74.0465 0 67.5906C28.75 66.6675 68.211 58.634 96.573 51.6279C105.34 49.4621 113.62 45.9415 122.519 44.1782C125.012 48.5193 127.525 51.6029 131.856 54.1181C139.512 58.564 147.408 57.186 155.538 55.0355C147.37 55.2275 139.888 54.9135 132.187 51.7937C129.411 50.6692 125.921 49.2246 124.677 46.3154C124.579 44.9385 124.67 43.9988 125.551 42.885C129.38 38.0429 170.852 20.5979 178.205 18.0803C182.759 16.5211 187.071 15.4124 191.851 14.8232Z" fill="#1C78C2"/>
<path d="M366.424 162.352L367.365 158.586C369.512 157.42 393.202 157.888 396.909 158.506C397.362 159.865 397.494 160.77 396.862 162.113C396.731 162.39 396.569 162.657 396.408 162.918C396.984 163.692 397.356 164.455 397.493 165.423C398.267 170.921 398.091 200.645 397.263 206.218L397.204 206.595C403.057 206.387 424.057 205.341 428.687 206.58C429.89 200.741 429.94 168.567 428.024 164.018C428.046 162.342 428.111 160.682 428.235 159.01C436.294 158.141 450.513 157.705 458.398 158.822C459.081 160.503 458.83 161.059 458.516 162.808L458.704 163.559L458.982 163.267C459.01 163.363 459.041 163.459 459.068 163.555C460.306 168.049 459.363 191.623 459.363 197.728C459.365 223.96 460.146 250.456 459.344 276.66C459.308 277.831 459.154 278.608 458.563 279.628C448.466 279.285 438.324 279.514 428.221 279.556C428.501 279.168 428.734 278.765 428.884 278.308C429.932 275.109 429.477 240.165 429.044 235.274C428.962 234.339 428.648 233.513 428.225 232.682C417.714 232.619 407.204 232.633 396.693 232.725C397.016 233.244 397.29 233.796 397.395 234.405C398.208 239.114 398.078 271.976 397.474 277.209C397.373 278.075 397.009 278.821 396.543 279.543C386.52 279.263 376.405 279.518 366.374 279.528C366.562 279.226 366.74 278.923 366.885 278.597C367.982 276.13 367.881 177.252 367.259 166.184C367.183 164.821 366.939 163.622 366.424 162.352Z" fill="#1C78C2"/>
<path d="M366.424 162.352L367.365 158.586C369.512 157.42 393.202 157.888 396.909 158.506C397.362 159.865 397.494 160.77 396.862 162.113C396.731 162.39 396.569 162.657 396.408 162.918C387.123 162.552 375.299 164.388 366.424 162.352Z" fill="#FCFAFC"/>
<path d="M428.024 164.017C428.046 162.341 428.111 160.681 428.235 159.009C436.294 158.14 450.513 157.704 458.398 158.821C459.081 160.502 458.83 161.058 458.516 162.807C453.201 162.805 432.194 161.415 428.233 163.898C428.165 163.94 428.093 163.978 428.024 164.017Z" fill="#FCFAFC"/>
<path d="M534.305 160.636C537.521 157.39 541.704 158.149 546.04 158.131L580.106 158.172C584.838 158.179 590.956 157.453 595.539 158.49C599.458 159.377 605.542 163.315 608.328 166.154C608.656 166.488 608.806 166.96 608.909 167.404C611.788 168.423 614.608 171.013 616.794 173.104C623.775 179.783 627.04 188.821 627.202 198.366C627.377 208.601 623.795 219.57 616.582 226.995C603.258 240.711 582.578 237.283 565.211 237.471C565.453 237.839 565.715 238.269 565.823 238.698C566.466 241.266 566.348 273.408 565.941 277.458C565.86 278.264 565.524 279.025 565.153 279.736C555.87 278.418 543.516 279.541 533.956 279.613C534.06 279.462 534.166 279.311 534.259 279.152C534.938 277.989 534.999 276.837 535.046 275.519C535.872 252.597 535.095 229.375 535.081 206.418C535.075 196.392 536.209 167.94 534.305 160.636ZM564.391 213.23C570.849 213.262 586.422 214.864 591.151 210.493C591.481 210.188 591.709 209.879 591.909 209.481C593.834 208.322 595.148 206.95 595.71 204.709C596.758 200.531 595.105 195.528 592.849 191.975C591.886 190.458 590.566 189.302 588.978 188.468C582.044 186.299 571.429 185.918 564.222 187.208C565.948 189.995 565.848 208.034 565.132 211.318C564.981 212.012 564.778 212.634 564.391 213.23Z" fill="#1C78C2"/>
<path d="M534.305 160.636C537.521 157.39 541.704 158.149 546.04 158.131L580.106 158.172C584.838 158.179 590.956 157.453 595.539 158.49C599.458 159.377 605.542 163.315 608.328 166.154C608.656 166.488 608.806 166.96 608.909 167.404C604.573 165.468 600.197 164.199 595.499 163.502C587.092 162.255 578.324 162.669 569.844 162.688L535.485 162.708L534.305 160.636Z" fill="#FCFAFC"/>
<path d="M652.615 159.304C664.271 158.789 676.24 159.15 687.917 159.41C689.611 161.147 689.516 163.598 689.565 165.856C691.166 169.371 691.948 173.489 693.104 177.195C696.05 186.503 698.922 195.832 701.721 205.184C708.996 228.776 717.418 252.373 723.688 276.221C723.993 277.386 724.091 278.291 723.706 279.471C712.983 279.48 702.2 279.267 691.483 279.547C693.344 273.119 685.255 263.051 684.599 256.448C675.864 254.926 660.197 256.114 650.56 256.054C651.196 258.497 646.104 275.345 644.438 278.332C644.204 278.751 643.85 279.132 643.514 279.471L616.146 279.524C616.893 278.7 617.527 277.846 617.94 276.805C621.824 267.032 650.126 177.852 649.923 173.477C649.913 173.247 649.89 173.018 649.867 172.788C651.212 169.267 653.322 162.986 652.615 159.304ZM657.417 231.491L669.167 231.476L678.021 231.465C678.724 228.324 671.075 205.199 668.703 201.275C668.345 200.683 667.78 200.246 667.1 200.103C666.153 205.2 660.298 228.666 657.417 231.491Z" fill="#1C78C2"/>
<path d="M652.615 159.304C664.271 158.789 676.24 159.15 687.917 159.41C689.611 161.147 689.516 163.598 689.565 165.856C689.121 164.849 688.709 163.075 687.635 162.64C684.14 161.224 659.506 162.494 653.704 162.4C654.274 165.524 652.383 170.316 650.963 173.122L650.342 173.21L649.867 172.788C651.212 169.267 653.322 162.986 652.615 159.304Z" fill="#FCFAFC"/>
<path d="M766.789 161.422C776.644 159.842 789.022 160.398 798.987 161.167C799.18 161.348 799.394 161.556 799.54 161.777C801.246 164.349 806.511 184.264 808.034 189.17C816.778 217.342 826.454 245.456 834.37 273.854C834.903 275.766 835.582 277.519 835.031 279.503C824.898 279.341 814.377 280.299 804.312 279.205C799.453 275.777 798.488 261.982 795.659 256.668C795.605 256.567 795.55 256.468 795.495 256.367C784.609 255.409 772.962 256.174 762.008 256.2C762.091 256.459 762.18 256.76 762.193 257.032C762.336 260.059 756.593 277.379 754.797 279.506C745.788 279.132 736.628 279.498 727.604 279.518C728.806 278.4 729.188 277.12 729.701 275.603C733.116 265.505 735.341 255.008 738.583 244.847C740.354 239.296 742.636 233.912 744.501 228.388C749.469 213.667 754.208 198.744 758.75 183.889C760.721 177.444 761.678 170.19 764.091 163.965C764.706 162.378 765.317 162.069 766.789 161.422ZM768.888 231.501L780.495 231.417C783.434 231.416 786.83 231.73 789.708 231.241C789.037 229.463 787.929 227.848 787.326 226.1C785.728 221.463 781.911 203.991 779.206 201.283L777.746 201.274C778.036 204.484 770.78 229.306 769.196 231.157C769.096 231.275 768.991 231.387 768.888 231.501Z" fill="#1C78C2"/>
<path d="M479.785 162.37C480.444 161.093 480.599 160.145 482.055 159.664C485.3 158.593 507.118 158.517 510.512 159.68C511.108 161.097 510.781 161.43 510.284 162.82C510.484 163.262 510.664 163.711 510.787 164.181C512.138 169.317 511.131 193.129 511.134 199.748L511.136 249.785C511.132 258.554 511.442 267.457 511.037 276.214C510.977 277.509 510.753 278.466 510.08 279.582C499.93 279.303 489.735 279.538 479.581 279.58C479.926 279.019 480.202 278.453 480.382 277.816C481.56 273.627 480.659 246.761 480.658 240.535C480.656 215.601 481.578 190.306 480.632 165.415C480.587 164.233 480.379 163.389 479.785 162.37Z" fill="#1C78C2"/>
<path d="M479.785 162.37C480.444 161.093 480.599 160.145 482.055 159.664C485.3 158.593 507.118 158.517 510.512 159.68C511.108 161.097 510.781 161.43 510.284 162.82C508.929 161.764 483.425 162.424 479.785 162.37Z" fill="#FCFAFC"/>
<path d="M206.304 177.363C216.484 179.515 225.265 184.383 235.945 184.727C231.808 186.554 227.695 188.411 223.87 190.848C220.18 193.199 216.547 196.479 215.628 200.949C214.932 204.335 215.828 208.284 217.8 211.105C220.579 215.08 225.237 217.293 229.628 219.005C247.628 226.023 263.858 223.398 282.124 226.547C292.609 228.354 301.392 232.89 307.609 241.737C313.01 249.422 315.635 260.233 313.928 269.516C312.468 277.451 308.084 281.429 301.668 285.88C301.487 286.064 301.464 286.1 301.219 286.271C300.785 286.573 299.402 287.348 298.952 287.265C294.952 286.524 290.367 282.05 286.599 280.152C284.201 278.945 281.322 278.444 278.714 277.863C283.845 276.549 291.545 274.476 294.858 270.041C296.478 267.872 297.044 265.212 296.656 262.551C296.154 259.107 294.17 255.825 291.948 253.2C280.765 239.989 262.411 244.671 247.18 242.998C232.15 241.347 217.209 237.771 205.025 228.438C198.902 223.748 194.095 219.036 193.075 211.033C192.142 203.708 193.316 193.666 197.655 187.496C200.15 183.948 203.607 180.85 206.304 177.363Z" fill="#1C78C2"/>
<path d="M399.595 44.2003C399.715 44.1892 399.836 44.1794 399.956 44.1671C406.676 43.4805 416.343 48.9086 422.853 50.7995C427.598 52.178 432.567 53.1558 437.396 54.211C451.174 57.222 465.298 60.4203 479.226 62.5688C492.885 64.6757 506.626 65.8196 520.3 67.7185L520.646 68.9849C520.221 70.34 519.405 71.2622 518.433 72.2718C509.246 81.8226 498.009 84.2346 485.182 84.4426C480.567 85.2076 474.911 84.6826 470.228 84.4036C443.215 82.7936 418.452 75.529 392.862 67.3411C384.447 64.6488 375.322 62.2655 367.493 58.1308L368.313 57.3587L367.118 57.6855C367.812 56.7871 368.878 56.4206 369.979 56.3141C377.832 55.5542 383.769 57.436 391.358 53.8398C395.348 51.9488 398.152 48.2985 399.595 44.2003Z" fill="#1C78C2"/>
<path d="M287.378 90.3922C296.75 89.6282 308.031 92.3562 317.022 94.9922C327.471 98.0562 336.31 103.576 341.601 113.395C346.763 122.975 347.11 135.902 343.99 146.171C339.8 159.962 331.142 166.29 318.923 172.773C311.615 168.166 303.051 165.522 295.094 162.214L284.98 158.287C293.751 156.771 309.675 154.02 315.738 147.094C318.924 143.453 321.816 135.843 321.325 131.026C320.442 122.363 313.873 114.499 307.426 109.216C301.545 109.749 297.667 111.482 292.456 114.095C284.599 113.277 276.214 113.225 269.426 108.566C267.903 107.521 266.307 106.08 266.039 104.153C265.833 102.663 266.57 101.281 267.465 100.144C271.905 94.5042 280.453 91.1472 287.378 90.3922Z" fill="#1C78C2"/>
<path d="M447.05 299.151C454.283 298.294 461.449 298.964 467.435 303.461C474.036 308.42 477.452 316.425 478.587 324.415C480.065 334.827 478.899 346.804 472.375 355.427C468.26 360.867 462.863 363.942 456.157 364.891C451.002 366.058 444.31 364.911 439.735 362.315C433.148 358.576 429.007 351.533 427.088 344.383C424.288 333.948 425.063 320.715 430.6 311.261C434.459 304.672 439.771 301.061 447.05 299.151ZM455.569 359.324C460.788 358.545 464.767 355.997 467.877 351.755C473.19 344.509 474.19 334.188 472.786 325.546C471.712 318.939 468.792 312.148 463.203 308.146C458.448 304.741 452.654 304.05 447.004 305.011C440.684 307.815 436.406 311.827 433.879 318.371C430.564 326.956 430.824 338.795 434.562 347.214C436.701 352.031 440.683 357.224 445.756 359.118C447.866 359.906 453.051 360.637 455.207 359.527C455.33 359.464 455.449 359.392 455.569 359.324Z" fill="#1C78C2"/>
<path d="M217.17 239.535C223.532 239.059 233.205 245.084 240.808 245.58C238.233 247.197 235.512 248.73 233.076 250.544C228.143 254.218 227.432 259.152 226.652 264.81C227.351 266.342 228.315 267.867 229.323 269.219C237.825 280.624 259.53 277.912 271.993 279.692C280.893 280.963 290.366 285.272 295.844 292.648C300.533 298.962 303.608 307.013 302.347 314.907C300.821 324.461 294.278 331.062 286.759 336.495C285.975 336.577 271.862 330.168 269.353 329.41C273.085 328.062 276.919 326.54 280.359 324.553C285.274 321.714 287.366 318.237 288.781 312.87C287.754 308.522 286.368 303.731 283.18 300.429C270.971 287.785 240.596 301.282 218.974 284.496C213.656 280.368 208.418 275.461 207.577 268.425C206.133 256.345 209.932 248.85 217.17 239.535Z" fill="#1C78C2"/>
<path d="M162.039 56.1904C172.008 55.6995 180.394 59.5588 188.245 65.361C187.499 66.1403 186.678 66.855 185.849 67.5441C168.172 82.236 128.184 95.382 105.459 98.123C93.9127 99.515 81.6377 99.089 70.0687 98.055C62.7117 96.762 52.5757 95.765 46.2317 91.812C44.9197 90.994 44.5077 90.498 44.1777 89.014C46.7097 87.089 57.4427 87.814 60.9427 87.693C91.7627 86.625 133.551 68.7483 162.039 56.1904Z" fill="#1C78C2"/>
<path d="M351.954 56.5084C353.485 56.3319 355.042 56.1541 356.585 56.1447C364.645 56.096 379.26 65.0323 387.1 68.1471C413.78 78.747 442.387 88.7619 471.398 88.5139C473.327 88.4979 476.262 88.1169 477.678 89.4979C477.589 89.7669 477.487 90.0219 477.319 90.2549C474.841 93.7009 463.248 96.3199 459.08 96.7889C458.88 96.9329 458.838 96.9789 458.574 97.0759C454.183 98.6919 447.783 98.5779 443.097 98.7219C413.252 99.6419 386.443 91.4179 359.207 79.8096C353.867 77.5335 339.758 71.9563 337.861 66.422C337.664 65.8472 337.494 64.8837 337.763 64.3415C339.753 60.338 347.985 57.8655 351.954 56.5084Z" fill="#1C78C2"/>
<path d="M189.529 66.5859C190.469 66.6225 191.393 66.743 192.295 67.0179C198.039 68.7673 210.192 73.7809 213.165 79.2488C213.07 79.9843 213.139 80.2584 212.589 80.8036C206.378 86.9591 161.218 105.982 151.202 108.135C142.484 110.01 133.323 109.639 124.463 109.499C115.235 108.099 107.553 107.404 99.8428 101.754C106.84 99.3721 114.812 98.9921 122.067 97.2181C140.477 92.7171 176.449 79.1812 189.529 66.5859Z" fill="#1C78C2"/>
<path d="M328.588 67.6209C329.855 67.4339 331.155 67.2121 332.368 67.7604C339.033 70.7723 345.443 75.1601 351.981 78.5572C372.388 89.1592 397.872 100.189 421.179 100.92C421.292 101.785 421.143 102.072 420.61 102.768C417.255 107.151 405.019 108.639 399.915 109.367C390.524 110.135 380.055 109.844 370.897 107.76C357.603 104.735 320.308 87.5012 309.215 80.4093L309.695 79.3431L308.464 79.7518C308.468 79.6011 308.45 79.4482 308.475 79.2996C308.885 76.8898 325.955 68.9046 328.588 67.6209Z" fill="#1C78C2"/>
<path d="M227.018 292.059C232.55 292.457 238.821 294.772 244.433 295.738C243.119 297.473 241.592 299.071 240.239 300.784C237.486 304.266 234.957 308.424 235.571 313.059C235.97 316.07 237.473 318.84 239.397 321.152C250.651 334.675 270.559 326.59 283.221 336.445C287.378 339.68 289.554 345.144 290.199 350.254C291.459 360.237 284.586 391.328 280.772 401.102C279.392 404.64 277.642 407.485 275.325 410.484C272.499 413.228 268.088 412.806 264.393 413.027C267.92 410.927 270.827 409.073 272.942 405.396C277.179 398.027 281.769 359.437 279.445 351.369C276.295 340.434 259.315 342.146 250.523 340.66C245.547 339.818 240.486 338.057 236.07 335.613C229.322 331.88 223.144 325.231 221.087 317.669C218.645 308.691 222.587 299.68 227.018 292.059Z" fill="#1C78C2"/>
<path d="M259.021 0.128802C264.112 -0.297498 270.103 0.264601 274.551 2.8714C279.352 5.6852 282.762 10.5488 284.127 15.912C285.685 22.0287 285.109 28.8333 281.791 34.2795C277.686 41.0176 271.899 43.4273 264.495 45.1927C257.907 45.5496 252.259 44.2323 246.819 40.3826C242.043 37.0025 238.626 32.4772 237.646 26.6013C236.733 21.1229 237.424 15.1256 240.786 10.5646C245.003 4.8446 252.124 1.1803 259.021 0.128802Z" fill="#1C78C2"/>
<path d="M560.111 300.91C562.344 300.652 564.659 300.739 566.91 300.711C576.015 300.596 590.353 298.7 597.253 305.623C600.643 309.024 602.181 313.882 602.133 318.617C602.087 323.132 600.627 327.463 597.321 330.645C591.023 336.706 581.769 336.363 573.659 336.288L565.038 336.313C567.14 339.928 566.538 357.899 565.93 362.722C565.006 363.605 564.018 363.322 562.776 363.339C561.415 362.34 561.009 361.653 560.666 359.974C559.815 355.804 560.429 350.887 560.482 346.629L560.559 318.833C560.578 313.107 561.233 306.488 560.111 300.91ZM565.342 330.615C573.029 330.698 584.28 332.202 591.034 328.056L591.612 327.185C593.791 325.772 594.99 324.058 595.496 321.481C596.159 318.096 595.802 313.798 593.757 310.954C591.557 307.895 588.096 306.675 584.508 306.15C578.605 305.287 571.478 305.722 565.534 306.185C566.749 309.152 567.098 326.434 565.851 329.565C565.706 329.927 565.531 330.274 565.342 330.615Z" fill="#1C78C2"/>
<path d="M491.746 300.909C494.143 300.732 496.62 300.845 499.027 300.834C499.419 301.212 499.803 301.621 500.092 302.086C502.338 305.707 515.594 344.919 517.168 350.832C517.465 351.948 517.469 352.937 517.235 354.062C517.414 353.89 517.59 353.715 517.76 353.534C519.841 351.316 536.045 303.837 535.897 300.866L544.032 300.768C544.298 301.242 544.518 301.769 544.681 302.287C545.75 305.689 545.174 361.335 544.314 362.998C543.067 363.672 542.811 363.721 541.393 363.662C540.382 362.976 539.722 362.652 539.324 361.421C537.387 355.438 541.204 325.422 538.338 320.556C538.279 320.456 538.215 320.359 538.154 320.261C538.456 319.799 538.72 319.312 538.877 318.78C539.793 315.684 539.095 312.865 537.613 310.107C537.73 310.681 537.817 311.26 537.872 311.844C538.166 315.032 521.86 361.052 520.397 362.81C519.653 363.705 519.395 363.602 518.299 363.71C510.491 359.624 504.491 319.376 496.416 310.652L496.236 310.46C496.475 310.933 496.686 311.412 496.906 311.892C497.548 313.289 497.609 314.419 497.658 315.933C497.847 321.733 498.756 361.407 496.902 363.392L493.1 363.307C492.854 363.116 492.553 362.981 492.362 362.735C491.188 361.225 493.188 309.075 491.781 301.101L491.746 300.909Z" fill="#1C78C2"/>
<path d="M698.41 300.91C700.506 300.703 702.459 300.674 704.558 300.84C705.88 301.746 706.263 302.655 706.916 304.105C709.666 310.208 711.674 316.875 713.975 323.178C718.215 334.791 722.528 346.317 727.027 357.828C727.674 359.483 728.205 361.223 727.456 362.93C726.321 363.614 725.946 363.722 724.631 363.638C720.168 363.353 718.499 348.192 715.359 344.781C715.279 344.693 715.194 344.609 715.111 344.523L704.324 344.458L687.533 344.413L687.889 345.815C686.693 350.084 684.473 360.391 680.47 362.728C679.168 363.487 677.859 363.595 676.428 363.197C675.822 359.867 695.631 309.296 698.41 300.91ZM689.815 338.764L701.395 338.876L712.765 338.747C713.283 335.851 704.116 311.176 702.103 308.224L701.18 307.942C701.155 311.517 692.684 336.024 690.154 338.461C690.045 338.566 689.928 338.663 689.815 338.764Z" fill="#1C78C2"/>
<path d="M738.2 300.909C739.771 300.698 741.472 300.553 743.06 300.592C743.945 300.614 745.155 300.845 745.775 301.518C748.862 304.867 773.504 346.639 775.519 351.499C775.775 352.116 775.802 352.768 775.775 353.427C777.981 347.63 776.591 319.808 776.558 311.943C776.544 308.476 776.104 304.404 776.894 301.045C778.383 300.434 780.491 300.755 782.101 300.814C782.758 308.047 782.971 358.488 781.571 361.864L781.655 363.056C781.268 363.292 780.898 363.448 780.451 363.542C778.809 363.888 776.672 363.397 775.452 362.218C773.338 360.175 771.495 356.109 769.958 353.565C765.316 345.879 748.67 314.985 743.735 311.439C744.09 312.248 744.369 313.064 744.514 313.938C746.171 323.947 744.648 335.867 744.532 346.058C744.479 350.732 745.025 355.682 744.584 360.314C744.485 361.355 744.017 362.151 743.422 362.985C742.04 363.717 741.869 363.795 740.246 363.489C739.973 363.146 739.426 362.628 739.259 362.246C738.357 360.188 738.962 355.125 738.968 352.759C738.987 344.981 740.256 305.815 738.351 301.251C738.303 301.136 738.25 301.023 738.2 300.909Z" fill="#1C78C2"/>
<path d="M389.689 299.151C390.575 299.084 391.458 299.086 392.345 299.098C399.113 299.191 405.902 300.735 410.734 305.848C413.727 309.016 415.748 314.185 415.659 318.582C414.888 319.81 414.914 319.89 413.538 320.295C410.919 319.54 408.272 314.109 406.616 311.936C403.615 307.997 399.674 305.03 394.624 304.414C389.625 303.804 384.127 305.696 380.263 308.882C374.84 313.354 372.453 320.192 371.744 326.993C370.835 335.71 371.792 345.98 377.558 353.007C380.806 356.965 385.313 359.188 390.373 359.633C393.955 359.948 398.931 359.626 401.764 357.255C411.026 353.418 408.448 345.478 411.352 342.924C412.995 342.764 413.504 342.642 415.05 343.324C415.491 343.91 415.854 344.501 415.951 345.237C416.423 348.841 413.996 353.259 411.891 356.107C408.088 361.253 402.453 364.392 396.155 365.309C395.731 365.373 395.307 365.425 394.881 365.467C394.455 365.51 394.028 365.542 393.601 365.562C393.173 365.583 392.746 365.593 392.318 365.593C391.89 365.593 391.462 365.582 391.035 365.56C390.607 365.538 390.181 365.506 389.755 365.463C389.329 365.421 388.904 365.367 388.482 365.302C388.058 365.238 387.637 365.164 387.218 365.079C386.798 364.994 386.381 364.899 385.967 364.793C385.552 364.687 385.14 364.571 384.731 364.444C384.322 364.318 383.917 364.182 383.515 364.035C383.113 363.889 382.714 363.732 382.32 363.566C381.925 363.4 381.535 363.223 381.15 363.037C380.764 362.852 380.384 362.657 380.008 362.452C379.632 362.248 379.261 362.034 378.897 361.81C378.531 361.587 378.172 361.355 377.818 361.113C377.464 360.873 377.117 360.623 376.776 360.364C370.06 355.288 366.727 347.399 365.634 339.235C364.254 328.937 365.573 316.966 372.12 308.526C376.703 302.62 382.387 300.052 389.689 299.151Z" fill="#1C78C2"/>
<path d="M255.36 108.323C258.474 108.317 264.78 107.503 267.39 108.951C267.497 109.276 267.597 109.597 267.688 109.927C268.918 114.402 269.666 152.835 267.858 155.965L253.496 155.955C253.335 144.695 251.865 122.511 253.563 112.451C253.825 110.896 254.505 109.629 255.36 108.323Z" fill="#1C78C2"/>
<path d="M236.836 339.059C240.204 339.388 245.009 342.636 248.453 343.893C246.807 345.216 244.851 346.766 243.771 348.596C239.429 355.954 244.388 389.577 246.719 398.573C248.497 405.435 250.122 408.277 256.308 411.92L256.242 412.336L254.863 413.123C251.989 412.933 250.374 412.52 248.111 410.719C244.978 408.226 243.102 405.439 241.522 401.783C237.931 393.476 233.092 368.697 232.041 359.151C231.195 351.46 231.866 345.238 236.836 339.059Z" fill="#1C78C2"/>
<path d="M257.314 345.248L264.863 345.257C265.238 353.817 264.628 362.662 264.411 371.238C264.028 386.622 263.731 402.007 263.519 417.394C263.481 421.742 265.836 425.56 265.665 429.852C265.545 432.85 263.598 436.572 262.464 439.375L261.025 443.208C259.536 439.339 257.086 434.644 256.72 430.526C256.267 425.423 258.757 420.792 258.73 415.68C258.606 392.199 257.394 368.737 257.314 345.248Z" fill="#1C78C2"/>
<path d="M791.416 300.91C797.548 299.814 827.258 299.662 833.561 300.589C835.015 300.803 835.243 300.864 836.107 302.054C835.971 303.614 835.781 304.13 834.898 305.423C832.602 306.951 819.527 305.998 815.909 305.972C816.304 306.585 816.624 307.241 816.771 307.962C817.562 311.86 817.369 341.863 815.855 344.281C816.107 344.691 816.345 345.12 816.514 345.571C817.886 349.225 817.652 358.806 816.01 362.273C814.602 363.511 814.335 363.398 812.534 363.525C812.389 363.448 811.677 363.135 811.621 363.04C809.069 358.705 813.73 312.809 810.263 306.024C804.387 306.043 798.485 306.18 792.618 305.805C792.42 304.201 792.202 302.76 791.568 301.262L791.416 300.91Z" fill="#1C78C2"/>
<path d="M614.447 300.909C616.592 300.753 618.52 300.554 620.611 301.212C621.22 307.911 621.78 354.75 619.768 357.976C630.245 358.111 640.9 357.427 651.342 358.161L651.902 359.196C651.804 360.96 651.557 361.904 650.534 363.353C638.431 363.217 626.31 363.364 614.205 363.372C614.29 363.242 614.381 363.116 614.46 362.982C615.524 361.182 615.202 303.636 614.447 300.909Z" fill="#1C78C2"/>
<path d="M254.341 184.062C258.838 183.897 263.253 184.496 267.646 185.394C268.288 196.99 267.453 209.043 267.134 220.665C263.711 221.483 258.569 220.821 254.956 220.839C254.265 208.618 254.431 196.302 254.341 184.062Z" fill="#1C78C2"/>
<path d="M252.23 47.0601C256.988 46.9861 269.43 45.4768 272.951 48.6462C273.824 49.4316 274.342 50.2815 274.298 51.5004C274.246 52.9539 273.55 53.9747 272.539 54.9447C270.753 55.6096 269.231 55.4449 267.362 55.2643C267.687 62.1689 267.928 68.9207 268.833 75.7828C264.522 77.583 258.81 76.7271 254.214 76.4626C253.923 69.3037 255.968 62.2932 255.947 55.0648C254.58 55.0579 252.654 55.1857 251.377 54.6802C249.805 54.0582 248.262 52.5884 247.705 50.999C247.42 50.1868 247.798 49.8548 248.161 49.1178C249.513 48.0694 250.58 47.5169 252.23 47.0601Z" fill="#1C78C2"/>
<path d="M661.295 300.91L667.259 300.846C668.087 310.89 667.286 321.508 667.256 331.631C667.225 341.941 667.871 352.397 667.296 362.684C666.226 363.474 665.194 363.363 663.894 363.488L662.639 363.405C662.431 363.214 661.976 362.897 661.844 362.671C660.128 359.727 661.66 309.055 661.295 300.91Z" fill="#1C78C2"/>
<path d="M255.384 245.727L266.777 245.723C266.729 255.749 266.523 265.772 266.159 275.792C262.917 276.339 259.119 275.983 255.809 275.991L255.384 245.727Z" fill="#1C78C2"/>
<path d="M256.229 296.338L265.753 296.371C265.662 306.753 265.638 317.137 265.113 327.508C262.396 327.648 259.568 327.45 256.842 327.406L256.229 296.338Z" fill="#1C78C2"/>
</svg>
